# xmcd CD database file
#
# Track frame offsets:
#	150
#	18585
#	38418
#	58378
#	73650
#	88925
#	107905
#	133365
#	146058
#	166810
#	187550
#	203108
#
# Disc length: 3000 seconds
#
# Revision: 0
# Processed by: cddbd v1.5.2PL0 Copyright (c) Steve Scherf et al.
# Submitted via: CDex 1.51
#
DISCID=ad0bb60c
DTITLE=Helén Johansson - Too good to be true
DYEAR=1994
DGENRE=Jazz
TTITLE0=Are you the one
TTITLE1=Too good to be true
TTITLE2=He´s not my man
TTITLE3=4 and 5
TTITLE4=Even though you´re no longer here
TTITLE5=Ta det lugnt (du hinner)
TTITLE6=Cus it´s so hard to be your woman
TTITLE7=Hot cuisine
TTITLE8=Out of my hands
TTITLE9=God give me strength
TTITLE10=Boo to the flu
TTITLE11=Tar vintern aldrig slut
EXTD=YEAR: 1994
EXTT0=
EXTT1=
EXTT2=
EXTT3=
EXTT4=
EXTT5=
EXTT6=
EXTT7=
EXTT8=
EXTT9=
EXTT10=
EXTT11=
PLAYORDER=
